<?xml version="1.0" standalone="no"?><svg xmlns="http://www.w3.org/2000/svg" viewBox="0 0 1440 320"><path fill="#1CA39E" fill-opacity="1" d="M0,128L11.4,160C22.9,192,46,256,69,256C91.4,256,114,192,137,181.3C160,171,183,213,206,208C228.6,203,251,149,274,133.3C297.1,117,320,139,343,138.7C365.7,139,389,117,411,133.3C434.3,149,457,203,480,229.3C502.9,256,526,256,549,229.3C571.4,203,594,149,617,149.3C640,149,663,203,686,213.3C708.6,224,731,192,754,192C777.1,192,800,224,823,234.7C845.7,245,869,235,891,202.7C914.3,171,937,117,960,112C982.9,107,1006,149,1029,154.7C1051.4,160,1074,128,1097,133.3C1120,139,1143,181,1166,197.3C1188.6,213,1211,203,1234,197.3C1257.1,192,1280,192,1303,197.3C1325.7,203,1349,213,1371,186.7C1394.3,160,1417,96,1429,64L1440,32L1440,320L1428.6,320C1417.1,320,1394,320,1371,320C1348.6,320,1326,320,1303,320C1280,320,1257,320,1234,320C1211.4,320,1189,320,1166,320C1142.9,320,1120,320,1097,320C1074.3,320,1051,320,1029,320C1005.7,320,983,320,960,320C937.1,320,914,320,891,320C868.6,320,846,320,823,320C800,320,777,320,754,320C731.4,320,709,320,686,320C662.9,320,640,320,617,320C594.3,320,571,320,549,320C525.7,320,503,320,480,320C457.1,320,434,320,411,320C388.6,320,366,320,343,320C320,320,297,320,274,320C251.4,320,229,320,206,320C182.9,320,160,320,137,320C114.3,320,91,320,69,320C45.7,320,23,320,11,320L0,320Z"></path></svg>